<svg width="963" height="299" viewBox="0 0 963 299" fill="none" xmlns="http://www.w3.org/2000/svg">
<g clip-path="url(#clip0_1371_1439)">
<path d="M39.9446 282.361H5.14438V127.712H39.9446V282.361ZM22.3932 106.182C16.341 106.182 11.0957 103.958 6.65743 99.5108C2.21914 95.0633 0 89.8073 0 83.7426C0 77.6779 2.21914 72.4218 6.65743 67.9744C11.0957 63.527 16.341 61.3032 22.3932 61.3032C28.6471 61.3032 33.9529 63.527 38.3105 67.9744C42.6277 72.4218 44.7864 77.6779 44.7864 83.7426C44.7864 89.8073 42.6277 95.0633 38.3105 99.5108C33.9529 103.958 28.6471 106.182 22.3932 106.182ZM116.505 282.361H81.7048V193.21C81.7048 179.868 84.7309 167.981 90.7831 157.55C96.8354 147.159 105.409 138.972 116.505 132.988C127.601 127.044 140.613 124.073 155.542 124.073C170.471 124.073 183.422 127.044 194.397 132.988C205.412 138.972 213.946 147.159 219.998 157.55C226.05 167.981 229.076 179.868 229.076 193.21V282.361H194.579V193.513C194.579 185.629 192.763 178.716 189.132 172.772C185.5 166.788 180.699 162.119 174.727 158.763C168.796 155.447 162.3 153.79 155.239 153.79C148.38 153.79 141.965 155.447 135.993 158.763C130.062 162.119 125.321 166.788 121.77 172.772C118.26 178.716 116.505 185.629 116.505 193.513V282.361ZM305.637 282.361H270.836V61H305.637V282.361ZM420.871 286C404.933 286 390.811 282.402 378.505 275.205C366.199 268.049 356.475 258.345 349.334 246.094C342.152 233.884 338.561 220.198 338.561 205.036C338.561 189.875 342.152 176.168 349.334 163.918C356.475 151.708 366.199 142.004 378.505 134.807C390.811 127.651 404.933 124.073 420.871 124.073C436.606 124.073 450.627 127.651 462.934 134.807C475.24 142.004 484.984 151.708 492.166 163.918C499.307 176.168 502.878 189.875 502.878 205.036C502.878 220.198 499.307 233.884 492.166 246.094C484.984 258.345 475.24 268.049 462.934 275.205C450.627 282.402 436.606 286 420.871 286ZM420.871 256.283C430.352 256.283 438.624 253.999 445.685 249.43C452.746 244.902 458.193 238.756 462.026 230.993C465.859 223.19 467.775 214.538 467.775 205.036C467.775 195.535 465.859 186.883 462.026 179.08C458.193 171.317 452.746 165.151 445.685 160.582C438.624 156.054 430.352 153.79 420.871 153.79C411.187 153.79 402.875 156.054 395.936 160.582C388.955 165.151 383.508 171.317 379.595 179.08C375.64 186.883 373.663 195.535 373.663 205.036C373.663 214.538 375.64 223.19 379.595 230.993C383.508 238.756 388.955 244.902 395.936 249.43C402.875 253.999 411.187 256.283 420.871 256.283ZM621.501 282.361H583.07C569.352 282.361 558.619 278.419 550.872 270.535C543.085 262.651 539.191 251.937 539.191 238.392V88.8976H573.689V236.876C573.689 241.526 575.101 245.306 577.925 248.217C580.75 251.168 584.482 252.644 589.122 252.644H621.501V282.361ZM621.804 157.429H512.562V127.712H621.804V157.429ZM669.616 285.697C662.959 285.697 657.25 283.311 652.489 278.54C647.768 273.81 645.408 268.109 645.408 261.438C645.408 254.969 647.768 249.349 652.489 244.578C657.25 239.848 662.959 237.482 669.616 237.482C676.072 237.482 681.66 239.848 686.381 244.578C691.142 249.349 693.523 254.969 693.523 261.438C693.523 265.885 692.453 269.969 690.315 273.689C688.217 277.449 685.352 280.4 681.721 282.543C678.09 284.646 674.055 285.697 669.616 285.697ZM788.845 286C774.118 286 761.408 282.361 750.716 275.084C740.024 267.806 731.793 258.042 726.023 245.791C720.294 233.581 717.429 220.097 717.429 205.34C717.429 189.976 720.697 176.168 727.234 163.918C733.81 151.708 743.191 142.004 755.376 134.807C767.602 127.651 782.188 124.073 799.134 124.073C815.878 124.073 830.141 127.651 841.923 134.807C853.745 142.004 862.823 151.708 869.158 163.918C875.533 176.168 878.72 189.774 878.72 204.733V282.361H843.92V253.554H843.315C840.289 259.214 836.355 264.511 831.513 269.443C826.671 274.416 820.72 278.419 813.659 281.451C806.598 284.484 798.327 286 788.845 286ZM798.226 256.283C807.304 256.283 815.212 253.999 821.951 249.43C828.729 244.902 834.035 238.756 837.868 230.993C841.701 223.19 843.517 214.437 843.315 204.733C843.315 195.03 841.499 186.398 837.868 178.837C834.236 171.236 829.092 165.151 822.435 160.582C815.777 156.054 807.808 153.79 798.528 153.79C788.845 153.79 780.574 156.054 773.714 160.582C766.855 165.151 761.61 171.276 757.979 178.958C754.347 186.64 752.532 195.333 752.532 205.036C752.532 214.538 754.347 223.19 757.979 230.993C761.61 238.756 766.795 244.902 773.533 249.43C780.311 253.999 788.542 256.283 798.226 256.283ZM955.22 282.361H920.42V127.712H955.22V282.361ZM937.669 106.182C931.617 106.182 926.371 103.958 921.933 99.5108C917.495 95.0633 915.276 89.8073 915.276 83.7426C915.276 77.6779 917.495 72.4218 921.933 67.9744C926.371 63.527 931.617 61.3032 937.669 61.3032C943.923 61.3032 949.229 63.527 953.586 67.9744C957.903 72.4218 960.062 77.6779 960.062 83.7426C960.062 89.8073 957.903 95.0633 953.586 99.5108C949.229 103.958 943.923 106.182 937.669 106.182Z" fill="#171717"/>
</g>
<g clip-path="url(#clip1_1371_1439)">
<path d="M39.1262 282.361H4.18989V127.712H39.1262V282.361ZM21.5061 106.182C15.4303 106.182 10.1645 103.958 5.70886 99.5108C1.25321 95.0633 -0.974609 89.8073 -0.974609 83.7426C-0.974609 77.6779 1.25321 72.4218 5.70886 67.9744C10.1645 63.527 15.4303 61.3032 21.5061 61.3032C27.7845 61.3032 33.1111 63.527 37.4857 67.9744C41.8198 72.4218 43.9869 77.6779 43.9869 83.7426C43.9869 89.8073 41.8198 95.0633 37.4857 99.5108C33.1111 103.958 27.7845 106.182 21.5061 106.182ZM115.986 282.361H81.0497V193.21C81.0497 179.868 84.0877 167.981 90.1636 157.55C96.2394 147.159 104.847 138.972 115.986 132.988C127.125 127.044 140.188 124.073 155.175 124.073C170.163 124.073 183.165 127.044 194.183 132.988C205.241 138.972 213.808 147.159 219.884 157.55C225.959 167.981 228.997 179.868 228.997 193.21V282.361H194.365V193.513C194.365 185.629 192.542 178.716 188.897 172.772C185.251 166.788 180.431 162.119 174.436 158.763C168.482 155.447 161.96 153.79 154.872 153.79C147.986 153.79 141.545 155.447 135.55 158.763C129.596 162.119 124.837 166.788 121.272 172.772C117.748 178.716 115.986 185.629 115.986 193.513V282.361ZM305.857 282.361H270.921V61H305.857V282.361ZM421.542 286C405.542 286 391.365 282.402 379.011 275.205C366.657 268.049 356.895 258.345 349.725 246.094C342.515 233.884 338.91 220.198 338.91 205.036C338.91 189.875 342.515 176.168 349.725 163.918C356.895 151.708 366.657 142.004 379.011 134.807C391.365 127.651 405.542 124.073 421.542 124.073C437.339 124.073 451.415 127.651 463.769 134.807C476.124 142.004 485.906 151.708 493.116 163.918C500.285 176.168 503.87 189.875 503.87 205.036C503.87 220.198 500.285 233.884 493.116 246.094C485.906 258.345 476.124 268.049 463.769 275.205C451.415 282.402 437.339 286 421.542 286ZM421.542 256.283C431.061 256.283 439.365 253.999 446.453 249.43C453.542 244.902 459.01 238.756 462.858 230.993C466.706 223.19 468.63 214.538 468.63 205.036C468.63 195.535 466.706 186.883 462.858 179.08C459.01 171.317 453.542 165.151 446.453 160.582C439.365 156.054 431.061 153.79 421.542 153.79C411.821 153.79 403.476 156.054 396.509 160.582C389.502 165.151 384.034 171.317 380.104 179.08C376.135 186.883 374.15 195.535 374.15 205.036C374.15 214.538 376.135 223.19 380.104 230.993C384.034 238.756 389.502 244.902 396.509 249.43C403.476 253.999 411.821 256.283 421.542 256.283ZM622.957 282.361H584.375C570.604 282.361 559.829 278.419 552.052 270.535C544.234 262.651 540.325 251.937 540.325 238.392V61H574.958V236.876C574.958 241.526 576.376 245.306 579.211 248.217C582.046 251.168 585.793 252.644 590.451 252.644H622.957V282.361ZM623.261 157.429H513.591V127.712H623.261V157.429ZM671.26 285.697C664.577 285.697 658.846 283.311 654.066 278.54C649.327 273.81 646.957 268.109 646.957 261.438C646.957 254.969 649.327 249.349 654.066 244.578C658.846 239.848 664.577 237.482 671.26 237.482C677.741 237.482 683.352 239.848 688.091 244.578C692.87 249.349 695.26 254.969 695.26 261.438C695.26 265.885 694.187 269.969 692.04 273.689C689.934 277.449 687.058 280.4 683.412 282.543C679.767 284.646 675.716 285.697 671.26 285.697ZM790.955 286C776.171 286 763.411 282.361 752.677 275.084C741.943 267.806 733.68 258.042 727.888 245.791C722.136 233.581 719.26 220.097 719.26 205.34C719.26 189.976 722.541 176.168 729.103 163.918C735.705 151.708 745.123 142.004 757.356 134.807C769.629 127.651 784.272 124.073 801.284 124.073C818.094 124.073 832.413 127.651 844.241 134.807C856.109 142.004 865.223 151.708 871.582 163.918C877.982 176.168 881.182 189.774 881.182 204.733V282.361H846.246V253.554H845.638C842.6 259.214 838.651 264.511 833.79 269.443C828.93 274.416 822.955 278.419 815.866 281.451C808.778 284.484 800.474 286 790.955 286ZM800.373 256.283C809.487 256.283 817.426 253.999 824.19 249.43C830.995 244.902 836.322 238.756 840.17 230.993C844.018 223.19 845.841 214.437 845.638 204.733C845.638 195.03 843.815 186.398 840.17 178.837C836.524 171.236 831.36 165.151 824.676 160.582C817.993 156.054 809.993 153.79 800.677 153.79C790.955 153.79 782.652 156.054 775.766 160.582C768.88 165.151 763.614 171.276 759.968 178.958C756.323 186.64 754.5 195.333 754.5 205.036C754.5 214.538 756.323 223.19 759.968 230.993C763.614 238.756 768.819 244.902 775.583 249.43C782.388 253.999 790.652 256.283 800.373 256.283ZM957.981 282.361H923.045V127.712H957.981V282.361ZM940.361 106.182C934.285 106.182 929.019 103.958 924.564 99.5108C920.108 95.0633 917.88 89.8073 917.88 83.7426C917.88 77.6779 920.108 72.4218 924.564 67.9744C929.019 63.527 934.285 61.3032 940.361 61.3032C946.64 61.3032 951.966 63.527 956.341 67.9744C960.675 72.4218 962.842 77.6779 962.842 83.7426C962.842 89.8073 960.675 95.0633 956.341 99.5108C951.966 103.958 946.64 106.182 940.361 106.182Z" fill="#4E77FB"/>
</g>
<g clip-path="url(#clip2_1371_1439)">
<path d="M42.5892 282.361H7.85359V127.712H42.5892V282.361ZM25.0704 106.182C19.0294 106.182 13.7939 103.958 9.36383 99.5108C4.93378 95.0633 2.71875 89.8073 2.71875 83.7426C2.71875 77.6779 4.93378 72.4218 9.36383 67.9744C13.7939 63.527 19.0294 61.3032 25.0704 61.3032C31.3127 61.3032 36.6087 63.527 40.9582 67.9744C45.2674 72.4218 47.422 77.6779 47.422 83.7426C47.422 89.8073 45.2674 95.0633 40.9582 99.5108C36.6087 103.958 31.3127 106.182 25.0704 106.182ZM119.008 282.361H84.272V193.21C84.272 179.868 87.2925 167.981 93.3335 157.55C99.3745 147.159 107.933 138.972 119.008 132.988C130.083 127.044 143.071 124.073 157.972 124.073C172.873 124.073 185.801 127.044 196.755 132.988C207.75 138.972 216.268 147.159 222.309 157.55C228.35 167.981 231.37 179.868 231.37 193.21V282.361H196.936V193.513C196.936 185.629 195.124 178.716 191.499 172.772C187.875 166.788 183.082 162.119 177.122 158.763C171.202 155.447 164.718 153.79 157.67 153.79C150.824 153.79 144.42 155.447 138.46 158.763C132.539 162.119 127.807 166.788 124.263 172.772C120.76 178.716 119.008 185.629 119.008 193.513V282.361ZM307.788 282.361H273.053V61H307.788V282.361ZM422.809 286C406.901 286 392.805 282.402 380.522 275.205C368.239 268.049 358.533 258.345 351.404 246.094C344.236 233.884 340.651 220.198 340.651 205.036C340.651 189.875 344.236 176.168 351.404 163.918C358.533 151.708 368.239 142.004 380.522 134.807C392.805 127.651 406.901 124.073 422.809 124.073C438.515 124.073 452.51 127.651 464.794 134.807C477.077 142.004 486.803 151.708 493.972 163.918C501.1 176.168 504.664 189.875 504.664 205.036C504.664 220.198 501.1 233.884 493.972 246.094C486.803 258.345 477.077 268.049 464.794 275.205C452.51 282.402 438.515 286 422.809 286ZM422.809 256.283C432.273 256.283 440.529 253.999 447.577 249.43C454.625 244.902 460.061 238.756 463.887 230.993C467.713 223.19 469.626 214.538 469.626 205.036C469.626 195.535 467.713 186.883 463.887 179.08C460.061 171.317 454.625 165.151 447.577 160.582C440.529 156.054 432.273 153.79 422.809 153.79C413.143 153.79 404.847 156.054 397.92 160.582C390.953 165.151 385.516 171.317 381.609 179.08C377.662 186.883 375.689 195.535 375.689 205.036C375.689 214.538 377.662 223.19 381.609 230.993C385.516 238.756 390.953 244.902 397.92 249.43C404.847 253.999 413.143 256.283 422.809 256.283ZM623.067 282.361H584.707C571.014 282.361 560.302 278.419 552.569 270.535C544.796 262.651 540.91 251.937 540.91 238.392V61H575.344V236.876C575.344 241.526 576.753 245.306 579.572 248.217C582.391 251.168 586.117 252.644 590.748 252.644H623.067V282.361ZM623.369 157.429H514.33V127.712H623.369V157.429ZM671.093 285.697C664.448 285.697 658.749 283.311 653.997 278.54C649.285 273.81 646.929 268.109 646.929 261.438C646.929 254.969 649.285 249.349 653.997 244.578C658.749 239.848 664.448 237.482 671.093 237.482C677.537 237.482 683.115 239.848 687.827 244.578C692.579 249.349 694.955 254.969 694.955 261.438C694.955 265.885 693.888 269.969 691.753 273.689C689.659 277.449 686.8 280.4 683.175 282.543C679.551 284.646 675.523 285.697 671.093 285.697ZM790.1 286C775.401 286 762.715 282.361 752.042 275.084C741.37 267.806 733.154 258.042 727.395 245.791C721.676 233.581 718.817 220.097 718.817 205.34C718.817 189.976 722.079 176.168 728.603 163.918C735.168 151.708 744.531 142.004 756.694 134.807C768.897 127.651 783.455 124.073 800.37 124.073C817.084 124.073 831.32 127.651 843.08 134.807C854.88 142.004 863.941 151.708 870.264 163.918C876.628 176.168 879.809 189.774 879.809 204.733V282.361H845.073V253.554H844.469C841.449 259.214 837.522 264.511 832.69 269.443C827.857 274.416 821.916 278.419 814.868 281.451C807.821 284.484 799.565 286 790.1 286ZM799.464 256.283C808.526 256.283 816.419 253.999 823.145 249.43C829.911 244.902 835.206 238.756 839.032 230.993C842.858 223.19 844.671 214.437 844.469 204.733C844.469 195.03 842.657 186.398 839.032 178.837C835.408 171.236 830.273 165.151 823.628 160.582C816.983 156.054 809.029 153.79 799.766 153.79C790.1 153.79 781.845 156.054 774.998 160.582C768.152 165.151 762.916 171.276 759.292 178.958C755.667 186.64 753.855 195.333 753.855 205.036C753.855 214.538 755.667 223.19 759.292 230.993C762.916 238.756 768.091 244.902 774.817 249.43C781.583 253.999 789.799 256.283 799.464 256.283ZM956.167 282.361H921.431V127.712H956.167V282.361ZM938.648 106.182C932.607 106.182 927.372 103.958 922.942 99.5108C918.512 95.0633 916.297 89.8073 916.297 83.7426C916.297 77.6779 918.512 72.4218 922.942 67.9744C927.372 63.527 932.607 61.3032 938.648 61.3032C944.891 61.3032 950.187 63.527 954.536 67.9744C958.845 72.4218 961 77.6779 961 83.7426C961 89.8073 958.845 95.0633 954.536 99.5108C950.187 103.958 944.891 106.182 938.648 106.182Z" fill="#171717"/>
</g>
<defs>
<clipPath id="clip0_1371_1439">
<rect width="249" height="225" fill="white" transform="translate(0 61)"/>
</clipPath>
<clipPath id="clip1_1371_1439">
<rect width="393" height="225" fill="white" transform="translate(249 61)"/>
</clipPath>
<clipPath id="clip2_1371_1439">
<rect width="319" height="225" fill="white" transform="translate(642 61)"/>
</clipPath>
</defs>
</svg>
