<svg width="1080" height="1080" viewBox="0 0 1080 1080" fill="none" xmlns="http://www.w3.org/2000/svg">
<rect width="1080" height="1080" fill="white"/>
<g clip-path="url(#clip0_1371_1423)">
<path d="M98.9446 672.361H64.1444V517.712H98.9446V672.361ZM81.3932 496.182C75.341 496.182 70.0957 493.958 65.6574 489.511C61.2191 485.063 59 479.807 59 473.743C59 467.678 61.2191 462.422 65.6574 457.974C70.0957 453.527 75.341 451.303 81.3932 451.303C87.6471 451.303 92.9529 453.527 97.3105 457.974C101.628 462.422 103.786 467.678 103.786 473.743C103.786 479.807 101.628 485.063 97.3105 489.511C92.9529 493.958 87.6471 496.182 81.3932 496.182ZM175.505 672.361H140.705V583.21C140.705 569.868 143.731 557.981 149.783 547.55C155.835 537.159 164.409 528.972 175.505 522.988C186.601 517.044 199.613 514.073 214.542 514.073C229.471 514.073 242.422 517.044 253.397 522.988C264.412 528.972 272.946 537.159 278.998 547.55C285.05 557.981 288.076 569.868 288.076 583.21V672.361H253.579V583.513C253.579 575.629 251.763 568.716 248.132 562.772C244.5 556.788 239.699 552.119 233.727 548.763C227.796 545.447 221.3 543.79 214.239 543.79C207.38 543.79 200.965 545.447 194.993 548.763C189.062 552.119 184.321 556.788 180.77 562.772C177.26 568.716 175.505 575.629 175.505 583.513V672.361ZM364.637 672.361H329.836V451H364.637V672.361ZM479.871 676C463.933 676 449.811 672.402 437.505 665.205C425.199 658.049 415.475 648.345 408.334 636.094C401.152 623.884 397.561 610.198 397.561 595.036C397.561 579.875 401.152 566.168 408.334 553.918C415.475 541.708 425.199 532.004 437.505 524.807C449.811 517.651 463.933 514.073 479.871 514.073C495.606 514.073 509.627 517.651 521.934 524.807C534.24 532.004 543.984 541.708 551.166 553.918C558.307 566.168 561.878 579.875 561.878 595.036C561.878 610.198 558.307 623.884 551.166 636.094C543.984 648.345 534.24 658.049 521.934 665.205C509.627 672.402 495.606 676 479.871 676ZM479.871 646.283C489.352 646.283 497.624 643.999 504.685 639.43C511.746 634.902 517.193 628.756 521.026 620.993C524.859 613.19 526.775 604.538 526.775 595.036C526.775 585.535 524.859 576.883 521.026 569.08C517.193 561.317 511.746 555.151 504.685 550.582C497.624 546.054 489.352 543.79 479.871 543.79C470.187 543.79 461.875 546.054 454.936 550.582C447.955 555.151 442.508 561.317 438.595 569.08C434.64 576.883 432.663 585.535 432.663 595.036C432.663 604.538 434.64 613.19 438.595 620.993C442.508 628.756 447.955 634.902 454.936 639.43C461.875 643.999 470.187 646.283 479.871 646.283ZM680.501 672.361H642.07C628.352 672.361 617.619 668.419 609.872 660.535C602.085 652.651 598.191 641.937 598.191 628.392V478.898H632.689V626.876C632.689 631.526 634.101 635.306 636.925 638.217C639.75 641.168 643.482 642.644 648.122 642.644H680.501V672.361ZM680.804 547.429H571.562V517.712H680.804V547.429ZM728.616 675.697C721.959 675.697 716.25 673.311 711.489 668.54C706.768 663.81 704.408 658.109 704.408 651.438C704.408 644.969 706.768 639.349 711.489 634.578C716.25 629.848 721.959 627.482 728.616 627.482C735.072 627.482 740.66 629.848 745.381 634.578C750.142 639.349 752.523 644.969 752.523 651.438C752.523 655.885 751.453 659.969 749.315 663.689C747.217 667.449 744.352 670.4 740.721 672.543C737.09 674.646 733.055 675.697 728.616 675.697ZM847.845 676C833.118 676 820.408 672.361 809.716 665.084C799.024 657.806 790.793 648.042 785.023 635.791C779.294 623.581 776.429 610.097 776.429 595.34C776.429 579.976 779.697 566.168 786.234 553.918C792.81 541.708 802.191 532.004 814.376 524.807C826.602 517.651 841.188 514.073 858.134 514.073C874.878 514.073 889.141 517.651 900.923 524.807C912.745 532.004 921.823 541.708 928.158 553.918C934.533 566.168 937.72 579.774 937.72 594.733V672.361H902.92V643.554H902.315C899.289 649.214 895.355 654.511 890.513 659.443C885.671 664.416 879.72 668.419 872.659 671.451C865.598 674.484 857.327 676 847.845 676ZM857.226 646.283C866.304 646.283 874.212 643.999 880.951 639.43C887.729 634.902 893.035 628.756 896.868 620.993C900.701 613.19 902.517 604.437 902.315 594.733C902.315 585.03 900.499 576.398 896.868 568.837C893.236 561.236 888.092 555.151 881.435 550.582C874.777 546.054 866.808 543.79 857.528 543.79C847.845 543.79 839.574 546.054 832.714 550.582C825.855 555.151 820.61 561.276 816.979 568.958C813.347 576.64 811.532 585.333 811.532 595.036C811.532 604.538 813.347 613.19 816.979 620.993C820.61 628.756 825.795 634.902 832.533 639.43C839.311 643.999 847.542 646.283 857.226 646.283ZM1014.22 672.361H979.42V517.712H1014.22V672.361ZM996.669 496.182C990.617 496.182 985.371 493.958 980.933 489.511C976.495 485.063 974.276 479.807 974.276 473.743C974.276 467.678 976.495 462.422 980.933 457.974C985.371 453.527 990.617 451.303 996.669 451.303C1002.92 451.303 1008.23 453.527 1012.59 457.974C1016.9 462.422 1019.06 467.678 1019.06 473.743C1019.06 479.807 1016.9 485.063 1012.59 489.511C1008.23 493.958 1002.92 496.182 996.669 496.182Z" fill="#171717"/>
</g>
<g clip-path="url(#clip1_1371_1423)">
<path d="M98.1262 672.361H63.1899V517.712H98.1262V672.361ZM80.5061 496.182C74.4303 496.182 69.1645 493.958 64.7089 489.511C60.2532 485.063 58.0254 479.807 58.0254 473.743C58.0254 467.678 60.2532 462.422 64.7089 457.974C69.1645 453.527 74.4303 451.303 80.5061 451.303C86.7845 451.303 92.1111 453.527 96.4857 457.974C100.82 462.422 102.987 467.678 102.987 473.743C102.987 479.807 100.82 485.063 96.4857 489.511C92.1111 493.958 86.7845 496.182 80.5061 496.182ZM174.986 672.361H140.05V583.21C140.05 569.868 143.088 557.981 149.164 547.55C155.239 537.159 163.847 528.972 174.986 522.988C186.125 517.044 199.188 514.073 214.175 514.073C229.163 514.073 242.165 517.044 253.183 522.988C264.241 528.972 272.808 537.159 278.884 547.55C284.959 557.981 287.997 569.868 287.997 583.21V672.361H253.365V583.513C253.365 575.629 251.542 568.716 247.897 562.772C244.251 556.788 239.431 552.119 233.436 548.763C227.482 545.447 220.96 543.79 213.872 543.79C206.986 543.79 200.545 545.447 194.55 548.763C188.596 552.119 183.837 556.788 180.272 562.772C176.748 568.716 174.986 575.629 174.986 583.513V672.361ZM364.857 672.361H329.921V451H364.857V672.361ZM480.542 676C464.542 676 450.365 672.402 438.011 665.205C425.657 658.049 415.895 648.345 408.725 636.094C401.515 623.884 397.91 610.198 397.91 595.036C397.91 579.875 401.515 566.168 408.725 553.918C415.895 541.708 425.657 532.004 438.011 524.807C450.365 517.651 464.542 514.073 480.542 514.073C496.339 514.073 510.415 517.651 522.769 524.807C535.124 532.004 544.906 541.708 552.116 553.918C559.285 566.168 562.87 579.875 562.87 595.036C562.87 610.198 559.285 623.884 552.116 636.094C544.906 648.345 535.124 658.049 522.769 665.205C510.415 672.402 496.339 676 480.542 676ZM480.542 646.283C490.061 646.283 498.365 643.999 505.453 639.43C512.542 634.902 518.01 628.756 521.858 620.993C525.706 613.19 527.63 604.538 527.63 595.036C527.63 585.535 525.706 576.883 521.858 569.08C518.01 561.317 512.542 555.151 505.453 550.582C498.365 546.054 490.061 543.79 480.542 543.79C470.821 543.79 462.476 546.054 455.509 550.582C448.502 555.151 443.034 561.317 439.104 569.08C435.135 576.883 433.15 585.535 433.15 595.036C433.15 604.538 435.135 613.19 439.104 620.993C443.034 628.756 448.502 634.902 455.509 639.43C462.476 643.999 470.821 646.283 480.542 646.283ZM681.957 672.361H643.375C629.604 672.361 618.829 668.419 611.052 660.535C603.234 652.651 599.325 641.937 599.325 628.392V451H633.958V626.876C633.958 631.526 635.376 635.306 638.211 638.217C641.046 641.168 644.793 642.644 649.451 642.644H681.957V672.361ZM682.261 547.429H572.591V517.712H682.261V547.429ZM730.26 675.697C723.577 675.697 717.846 673.311 713.066 668.54C708.327 663.81 705.957 658.109 705.957 651.438C705.957 644.969 708.327 639.349 713.066 634.578C717.846 629.848 723.577 627.482 730.26 627.482C736.741 627.482 742.352 629.848 747.091 634.578C751.87 639.349 754.26 644.969 754.26 651.438C754.26 655.885 753.187 659.969 751.04 663.689C748.934 667.449 746.058 670.4 742.412 672.543C738.767 674.646 734.716 675.697 730.26 675.697ZM849.955 676C835.171 676 822.411 672.361 811.677 665.084C800.943 657.806 792.68 648.042 786.888 635.791C781.136 623.581 778.26 610.097 778.26 595.34C778.26 579.976 781.541 566.168 788.103 553.918C794.705 541.708 804.123 532.004 816.356 524.807C828.629 517.651 843.272 514.073 860.284 514.073C877.094 514.073 891.413 517.651 903.241 524.807C915.109 532.004 924.223 541.708 930.582 553.918C936.982 566.168 940.182 579.774 940.182 594.733V672.361H905.246V643.554H904.638C901.6 649.214 897.651 654.511 892.79 659.443C887.93 664.416 881.955 668.419 874.866 671.451C867.778 674.484 859.474 676 849.955 676ZM859.373 646.283C868.487 646.283 876.426 643.999 883.19 639.43C889.995 634.902 895.322 628.756 899.17 620.993C903.018 613.19 904.841 604.437 904.638 594.733C904.638 585.03 902.815 576.398 899.17 568.837C895.524 561.236 890.36 555.151 883.676 550.582C876.993 546.054 868.993 543.79 859.677 543.79C849.955 543.79 841.652 546.054 834.766 550.582C827.88 555.151 822.614 561.276 818.968 568.958C815.323 576.64 813.5 585.333 813.5 595.036C813.5 604.538 815.323 613.19 818.968 620.993C822.614 628.756 827.819 634.902 834.583 639.43C841.388 643.999 849.652 646.283 859.373 646.283ZM1016.98 672.361H982.045V517.712H1016.98V672.361ZM999.361 496.182C993.285 496.182 988.019 493.958 983.564 489.511C979.108 485.063 976.88 479.807 976.88 473.743C976.88 467.678 979.108 462.422 983.564 457.974C988.019 453.527 993.285 451.303 999.361 451.303C1005.64 451.303 1010.97 453.527 1015.34 457.974C1019.67 462.422 1021.84 467.678 1021.84 473.743C1021.84 479.807 1019.67 485.063 1015.34 489.511C1010.97 493.958 1005.64 496.182 999.361 496.182Z" fill="#4E77FB"/>
</g>
<g clip-path="url(#clip2_1371_1423)">
<path d="M101.589 672.361H66.8536V517.712H101.589V672.361ZM84.0704 496.182C78.0294 496.182 72.7939 493.958 68.3638 489.511C63.9338 485.063 61.7188 479.807 61.7188 473.743C61.7188 467.678 63.9338 462.422 68.3638 457.974C72.7939 453.527 78.0294 451.303 84.0704 451.303C90.3127 451.303 95.6087 453.527 99.9582 457.974C104.267 462.422 106.422 467.678 106.422 473.743C106.422 479.807 104.267 485.063 99.9582 489.511C95.6087 493.958 90.3127 496.182 84.0704 496.182ZM178.008 672.361H143.272V583.21C143.272 569.868 146.293 557.981 152.333 547.55C158.374 537.159 166.933 528.972 178.008 522.988C189.083 517.044 202.071 514.073 216.972 514.073C231.873 514.073 244.801 517.044 255.755 522.988C266.75 528.972 275.268 537.159 281.309 547.55C287.35 557.981 290.37 569.868 290.37 583.21V672.361H255.936V583.513C255.936 575.629 254.124 568.716 250.499 562.772C246.875 556.788 242.082 552.119 236.122 548.763C230.202 545.447 223.718 543.79 216.67 543.79C209.824 543.79 203.42 545.447 197.46 548.763C191.539 552.119 186.807 556.788 183.263 562.772C179.76 568.716 178.008 575.629 178.008 583.513V672.361ZM366.788 672.361H332.053V451H366.788V672.361ZM481.809 676C465.901 676 451.805 672.402 439.522 665.205C427.239 658.049 417.533 648.345 410.404 636.094C403.236 623.884 399.651 610.198 399.651 595.036C399.651 579.875 403.236 566.168 410.404 553.918C417.533 541.708 427.239 532.004 439.522 524.807C451.805 517.651 465.901 514.073 481.809 514.073C497.515 514.073 511.51 517.651 523.794 524.807C536.077 532.004 545.803 541.708 552.972 553.918C560.1 566.168 563.664 579.875 563.664 595.036C563.664 610.198 560.1 623.884 552.972 636.094C545.803 648.345 536.077 658.049 523.794 665.205C511.51 672.402 497.515 676 481.809 676ZM481.809 646.283C491.273 646.283 499.529 643.999 506.577 639.43C513.625 634.902 519.061 628.756 522.887 620.993C526.713 613.19 528.626 604.538 528.626 595.036C528.626 585.535 526.713 576.883 522.887 569.08C519.061 561.317 513.625 555.151 506.577 550.582C499.529 546.054 491.273 543.79 481.809 543.79C472.143 543.79 463.847 546.054 456.92 550.582C449.953 555.151 444.516 561.317 440.609 569.08C436.662 576.883 434.689 585.535 434.689 595.036C434.689 604.538 436.662 613.19 440.609 620.993C444.516 628.756 449.953 634.902 456.92 639.43C463.847 643.999 472.143 646.283 481.809 646.283ZM682.067 672.361H643.707C630.014 672.361 619.302 668.419 611.569 660.535C603.796 652.651 599.91 641.937 599.91 628.392V451H634.344V626.876C634.344 631.526 635.753 635.306 638.572 638.217C641.391 641.168 645.117 642.644 649.748 642.644H682.067V672.361ZM682.369 547.429H573.33V517.712H682.369V547.429ZM730.093 675.697C723.448 675.697 717.749 673.311 712.997 668.54C708.285 663.81 705.929 658.109 705.929 651.438C705.929 644.969 708.285 639.349 712.997 634.578C717.749 629.848 723.448 627.482 730.093 627.482C736.537 627.482 742.115 629.848 746.827 634.578C751.579 639.349 753.955 644.969 753.955 651.438C753.955 655.885 752.888 659.969 750.753 663.689C748.659 667.449 745.8 670.4 742.175 672.543C738.551 674.646 734.523 675.697 730.093 675.697ZM849.1 676C834.401 676 821.715 672.361 811.042 665.084C800.37 657.806 792.154 648.042 786.395 635.791C780.676 623.581 777.817 610.097 777.817 595.34C777.817 579.976 781.079 566.168 787.603 553.918C794.168 541.708 803.531 532.004 815.694 524.807C827.897 517.651 842.455 514.073 859.37 514.073C876.084 514.073 890.32 517.651 902.08 524.807C913.88 532.004 922.941 541.708 929.264 553.918C935.628 566.168 938.809 579.774 938.809 594.733V672.361H904.073V643.554H903.469C900.449 649.214 896.522 654.511 891.69 659.443C886.857 664.416 880.916 668.419 873.868 671.451C866.821 674.484 858.565 676 849.1 676ZM858.464 646.283C867.526 646.283 875.419 643.999 882.145 639.43C888.911 634.902 894.206 628.756 898.032 620.993C901.858 613.19 903.671 604.437 903.469 594.733C903.469 585.03 901.657 576.398 898.032 568.837C894.408 561.236 889.273 555.151 882.628 550.582C875.983 546.054 868.029 543.79 858.766 543.79C849.1 543.79 840.845 546.054 833.998 550.582C827.152 555.151 821.916 561.276 818.292 568.958C814.667 576.64 812.855 585.333 812.855 595.036C812.855 604.538 814.667 613.19 818.292 620.993C821.916 628.756 827.091 634.902 833.817 639.43C840.583 643.999 848.799 646.283 858.464 646.283ZM1015.17 672.361H980.431V517.712H1015.17V672.361ZM997.648 496.182C991.607 496.182 986.372 493.958 981.942 489.511C977.512 485.063 975.297 479.807 975.297 473.743C975.297 467.678 977.512 462.422 981.942 457.974C986.372 453.527 991.607 451.303 997.648 451.303C1003.89 451.303 1009.19 453.527 1013.54 457.974C1017.85 462.422 1020 467.678 1020 473.743C1020 479.807 1017.85 485.063 1013.54 489.511C1009.19 493.958 1003.89 496.182 997.648 496.182Z" fill="#171717"/>
</g>
<defs>
<clipPath id="clip0_1371_1423">
<rect width="249" height="225" fill="white" transform="translate(59 451)"/>
</clipPath>
<clipPath id="clip1_1371_1423">
<rect width="393" height="225" fill="white" transform="translate(308 451)"/>
</clipPath>
<clipPath id="clip2_1371_1423">
<rect width="319" height="225" fill="white" transform="translate(701 451)"/>
</clipPath>
</defs>
</svg>
